<?xml version="1.0" encoding="us-ascii" standalone="no"?><svg xmlns="http://www.w3.org/2000/svg" xmlns:xlink="http://www.w3.org/1999/xlink" contentStyleType="text/css" height="483.3333px" preserveAspectRatio="none" style="width:389px;height:483px;" version="1.1" viewBox="0 0 389 483" width="389.5833px" zoomAndPan="magnify"><defs><style type="text/css">@import url('https://fonts.googleapis.com/css?family=Roboto:400,100,100italic,300,300italic,400italic,500,500italic,700,700italic,900,900italic');</style></defs><g><!--cluster HTTP API Gateway--><g id="cluster_HTTP API Gateway"><rect fill="#99CAFF" height="110.4167" rx="4.1667" ry="4.1667" style="stroke:#333333;stroke-width:1.0416666666666667;" width="135.4167" x="156.25" y="189.5833"/><text fill="#2E2E2E" font-family="Roboto" font-size="12.5" font-weight="bold" lengthAdjust="spacing" textLength="108.3333" x="169.7917" y="210.3638">HTTP API Gateway</text></g><!--cluster Clients--><g id="cluster_Clients"><rect fill="#FBB1CC" height="110.4167" rx="4.1667" ry="4.1667" style="stroke:#333333;stroke-width:1.0416666666666667;" width="198.9583" x="97.9167" y="17.7083"/><text fill="#2E2E2E" font-family="Roboto" font-size="12.5" font-weight="bold" lengthAdjust="spacing" textLength="40.625" x="177.0833" y="38.4888">Clients</text></g><!--cluster Services--><g id="cluster_Services"><rect fill="#FCFCD4" height="110.4167" rx="4.1667" ry="4.1667" style="stroke:#333333;stroke-width:1.0416666666666667;" width="360.4167" x="17.7083" y="361.4583"/><text fill="#2E2E2E" font-family="Roboto" font-size="12.5" font-weight="bold" lengthAdjust="spacing" textLength="52.0833" x="171.875" y="382.2388">Services</text></g><!--entity Proxy--><g id="elem_Proxy"><rect fill="none" height="47.876" rx="4.1667" ry="4.1667" style="stroke:#333333;stroke-width:1.0416666666666667;" width="61.4583" x="193.2292" y="235.4167"/><text fill="#2E2E2E" font-family="Roboto" font-size="12.5" lengthAdjust="spacing" textLength="30.2083" x="208.8542" y="264.5304">Proxy</text></g><!--entity App A--><g id="elem_App A"><rect fill="none" height="47.876" rx="4.1667" ry="4.1667" style="stroke:#333333;stroke-width:1.0416666666666667;" width="63.5417" x="115.1042" y="63.5417"/><text fill="#2E2E2E" font-family="Roboto" font-size="12.5" lengthAdjust="spacing" textLength="32.2917" x="130.7292" y="92.6554">App A</text></g><!--entity App B--><g id="elem_App B"><rect fill="none" height="47.876" rx="4.1667" ry="4.1667" style="stroke:#333333;stroke-width:1.0416666666666667;" width="64.5833" x="215.625" y="63.5417"/><text fill="#2E2E2E" font-family="Roboto" font-size="12.5" lengthAdjust="spacing" textLength="33.3333" x="231.25" y="92.6554">App B</text></g><!--entity Service A--><g id="elem_Service A"><rect fill="none" height="47.876" rx="4.1667" ry="4.1667" style="stroke:#333333;stroke-width:1.0416666666666667;" width="83.3333" x="34.375" y="407.2917"/><text fill="#2E2E2E" font-family="Roboto" font-size="12.5" lengthAdjust="spacing" textLength="52.0833" x="50" y="436.4054">Service A</text></g><!--entity Service B--><g id="elem_Service B"><rect fill="none" height="47.876" rx="4.1667" ry="4.1667" style="stroke:#333333;stroke-width:1.0416666666666667;" width="84.375" x="154.6875" y="407.2917"/><text fill="#2E2E2E" font-family="Roboto" font-size="12.5" lengthAdjust="spacing" textLength="53.125" x="170.3125" y="436.4054">Service B</text></g><!--entity Service C--><g id="elem_Service C"><rect fill="none" height="47.876" rx="4.1667" ry="4.1667" style="stroke:#333333;stroke-width:1.0416666666666667;" width="85.4167" x="276.0417" y="407.2917"/><text fill="#2E2E2E" font-family="Roboto" font-size="12.5" lengthAdjust="spacing" textLength="54.1667" x="291.6667" y="436.4054">Service C</text></g><!--link App A to Proxy--><g id="link_App A_Proxy"><path d="M138.3646,111.6146 C133.3125,129.0833 129.3229,153.3333 137.5,172.9167 C148.7292,199.7813 168.0003,218.7187 187.9691,233.9582 " fill="none" id="App A-to-Proxy" style="stroke:#666666;stroke-width:2.0833333333333335;"/><polygon fill="#666666" points="192.9375,237.75,188.0127,228.7501,188.7972,234.5902,182.957,235.3746,192.9375,237.75" style="stroke:#666666;stroke-width:2.0833333333333335;"/><text fill="#2E2E2E" font-family="Roboto" font-size="12.5" lengthAdjust="spacing" textLength="128.125" x="143.75" y="164.5304">Downstream requests</text></g><!--link App B to Proxy--><g id="link_App B_Proxy"><path d="M268.2813,111.5 C275.5,121.1042 282.75,132.8021 286.4583,144.7917 C290.1563,156.7292 290.3438,161.0312 286.4583,172.9167 C278.6979,196.6667 265.7202,214.6438 251.3452,230.6334 " fill="none" id="App B-to-Proxy" style="stroke:#666666;stroke-width:2.0833333333333335;"/><polygon fill="#666666" points="247.1667,235.2813,256.533,231.0952,250.6488,231.408,250.3359,225.5238,247.1667,235.2813" style="stroke:#666666;stroke-width:2.0833333333333335;"/></g><!--link Proxy to Service A--><g id="link_Proxy_Service A"><path d="M193.0625,262.5833 C158.5729,266.8333 104.1875,279.4271 78.125,316.6667 C59.5938,343.1563 62.5856,376.2024 68.1064,400.9211 " fill="none" id="Proxy-to-Service A" style="stroke:#666666;stroke-width:2.0833333333333335;"/><polygon fill="#666666" points="69.4688,407.0208,71.4917,396.963,68.3335,401.9377,63.3588,398.7795,69.4688,407.0208" style="stroke:#666666;stroke-width:2.0833333333333335;"/><text fill="#2E2E2E" font-family="Roboto" font-size="12.5" lengthAdjust="spacing" textLength="111.4583" x="84.375" y="336.4054">Upstream requests</text></g><!--link Proxy to Service B--><g id="link_Proxy_Service B"><path d="M220.25,283.6667 C215.0625,316.1875 206.6813,368.7028 201.525,401.0674 " fill="none" id="Proxy-to-Service B" style="stroke:#666666;stroke-width:2.0833333333333335;"/><polygon fill="#666666" points="200.5417,407.2396,206.1314,398.6369,201.3611,402.0961,197.9019,397.3258,200.5417,407.2396" style="stroke:#666666;stroke-width:2.0833333333333335;"/></g><!--link Proxy to Service C--><g id="link_Proxy_Service C"><path d="M236.9375,283.6667 C255.0938,316.1875 284.807,369.4182 302.8799,401.7827 " fill="none" id="Proxy-to-Service C" style="stroke:#666666;stroke-width:2.0833333333333335;"/><polygon fill="#666666" points="305.9271,407.2396,304.9942,397.0229,303.3878,402.6922,297.7184,401.0858,305.9271,407.2396" style="stroke:#666666;stroke-width:2.0833333333333335;"/></g><!--SRC=[TP3BJiCm44NNyLSCwRgyX92AgafD4Gy9eOg65Uh2SIPD5CSEzeGGeVux9YHjA30RUyRttBdo4QLO8DWSIQJDM5SaCuNCvfagkU4515pa6wCh5I-qr0R8S6NT4oeQg5AkujfaHAWWuT8E7M9CU2NfHYjwv6wN_wGZJTeVI8GkIgsSvOeQYM1G45SRYOnDxTTanZnkZAxXWtdUWmludMLqsLOt2zDCv0gjXVFZK-PjsVIaWzdE7_oxC5p2V7aFjvomveqFeyb4y2Hntk3gPMdqUxDcsn_KGcRkj4wSHD6P4BruNfOmN-_lmI6uGlEM2Mn9aOZueYUxXntTzy51lsWTkqKm7i_wX705rxfMbWow7pJuMg4boxeOGoNhYNQsN-mSdijV_5_Qu1yF5-uJ]--></g></svg>